# xmcd
#
# Track frame offsets: 
#        150
#        14137
#        28720
#        45467
#        62242
#        84105
#        103362
#        117930
#        134670
#        157460
#
# Disc length: 2323 seconds
#
# Revision: 4
# Processed by: cddbd v1.5.2PL0 Copyright (c) Steve Scherf et al.
# Submitted via: ExactAudioCopy v0.99pb4
#
DISCID=9009110a
DTITLE=Trisha Yearwood - Everybody Knows
DYEAR=1996
DGENRE=Country
TTITLE0=I Want To Live Again
TTITLE1=It's Alright
TTITLE2=Believe Me Baby (I Lied)
TTITLE3=I Need You
TTITLE4=Little Hercules
TTITLE5=Under The Rainbow
TTITLE6=Everybody Knows
TTITLE7=Hello, I'm Gone
TTITLE8=Maybe It's Love
TTITLE9=A Lover Is Forever
EXTD=
EXTT0=
EXTT1=
EXTT2=
EXTT3=
EXTT4=
EXTT5=
EXTT6=
EXTT7=
EXTT8=
EXTT9=
PLAYORDER=
